<?xml version="1.0" encoding="UTF-8"?><svg id="_圖層_2" xmlns="http://www.w3.org/2000/svg" viewBox="0 0 512 512"><defs><style>.cls-1{fill:#434e0d;}</style></defs><path class="cls-1" d="M495.84,16.76c0-9.29-7.56-16.86-16.86-16.86H31.02C21.72-.09,14.16,7.47,14.16,16.76v294.55h481.68V16.76ZM237.83,232.09c0,8.28-6.71,14.99-14.99,14.99h-121.19c-8.28,0-14.99-6.71-14.99-14.99v-13.76c0-26.76,14-50.29,35.04-63.71-31.15-34.29-6.24-90.65,40.55-90.48,46.78-.17,71.7,56.2,40.55,90.48,21.04,13.42,35.04,36.95,35.04,63.71v13.76h0ZM408.35,247.08h-96.84c-19.89-.79-19.87-29.2,0-29.98h96.84c19.89.79,19.87,29.2,0,29.98ZM408.35,170.6h-96.84c-19.89-.79-19.87-29.2,0-29.98h96.84c19.89.79,19.87,29.19,0,29.98ZM408.35,94.12h-96.84c-19.89-.79-19.87-29.2,0-29.98h96.84c19.89.79,19.87,29.2,0,29.98Z"/><path class="cls-1" d="M176.32,430.72v50.87h-10.23c-19.89.79-19.87,29.2,0,29.98h177.83c19.89-.79,19.87-29.2,0-29.98h-10.23v-50.87h-157.36Z"/><path class="cls-1" d="M14.16,383.88c0,9.29,7.56,16.86,16.86,16.86h447.96c9.29,0,16.86-7.56,16.86-16.86v-42.59H14.16v42.59Z"/><path class="cls-1" d="M162.3,172.78h-.11c-24.7,0-44.88,19.77-45.53,44.32h91.18c-.65-24.55-20.83-44.32-45.53-44.32h0Z"/><path class="cls-1" d="M162.24,142.8c13.46,0,24.42-10.92,24.42-24.34-1.34-32.29-47.5-32.28-48.83,0,0,13.42,10.95,24.34,24.41,24.34Z"/></svg>