<?xml version="1.0" encoding="UTF-8"?><svg id="Layer_1" xmlns="http://www.w3.org/2000/svg" viewBox="0 0 10.75 10.99"><defs><style>.cls-1{fill:#fff;fill-rule:evenodd;}</style></defs><path class="cls-1" d="M9.41,0c.74,0,1.34.61,1.34,1.34v8.3c0,.74-.6,1.34-1.34,1.34H1.34c-.74,0-1.34-.61-1.34-1.34V1.34C0,.61.6,0,1.34,0h8.06ZM1.79,7.29c-.25,0-.45.2-.45.45s.2.45.45.45h7.17c.25,0,.45-.2.45-.45s-.2-.45-.45-.45H1.79ZM1.79,5.05c-.25,0-.45.2-.45.45s.2.45.45.45h7.17c.25,0,.45-.2.45-.45s-.2-.45-.45-.45H1.79ZM1.79,2.81c-.25,0-.45.2-.45.45s.2.45.45.45h7.17c.25,0,.45-.2.45-.45s-.2-.45-.45-.45H1.79Z"/></svg>