<?xml version="1.0" encoding="UTF-8"?><svg id="Layer_1" xmlns="http://www.w3.org/2000/svg" viewBox="0 0 39.25 33.25"><defs><style>.cls-1{fill:#fff;}</style></defs><path class="cls-1" d="M38.25,20.35c0-2.42-1.56-4.47-3.72-5.24V5.59c0-3.08-2.51-5.59-5.59-5.59H10.31c-3.08,0-5.59,2.51-5.59,5.59v9.52c-2.16.77-3.72,2.82-3.72,5.24l-1,11.04c0,1.03.83,1.86,1.86,1.86s1.86-.83,1.86-1.86v-3.72h31.8v3.72c0,1.03.83,1.86,1.86,1.86s1.86-.83,1.86-1.86l-1-11.04ZM17.64,10.04c0,1.58-1.28,2.86-2.86,2.86h-3.96c-1.58,0-2.86-1.28-2.86-2.86v-2.06c0-1.58,1.28-2.86,2.86-2.86h3.96c1.58,0,2.86,1.28,2.86,2.86v2.06ZM31.28,10.04c0,1.58-1.28,2.86-2.86,2.86h-3.96c-1.58,0-2.86-1.28-2.86-2.86v-2.06c0-1.58,1.28-2.86,2.86-2.86h3.96c1.58,0,2.86,1.28,2.86,2.86v2.06Z"/></svg>