<?xml version="1.0" encoding="UTF-8"?><svg id="Capa_1" xmlns="http://www.w3.org/2000/svg" viewBox="0 0 512 512"><defs><style>.cls-1{fill:#434e0d;}</style></defs><path class="cls-1" d="M316,30h-28.15l-3.55-9.99C280.05,8.04,268.69,0,256,0s-24.05,8.04-28.3,20.01l-3.54,9.99h-28.15c-16.57,0-30,13.43-30,30v15c0,8.28,6.72,15,15,15h150c8.28,0,15-6.72,15-15v-15c0-16.57-13.43-30-30-30Z"/><path class="cls-1" d="M406,60h-30v15c0,24.81-20.19,45-45,45h-150c-24.81,0-45-20.19-45-45v-15h-30c-24.81,0-45,20.19-45,45v360c0,24.81,20.19,47,45,47h300c24.81,0,45-22.19,45-47V105c0-24.81-20.19-45-45-45ZM236.6,385.61l-60,60c-2.93,2.93-6.77,4.39-10.6,4.39s-7.68-1.46-10.6-4.39l-30-30c-5.86-5.86-5.86-15.35,0-21.21,5.86-5.86,15.35-5.86,21.21,0l19.39,19.39,49.4-49.39c5.86-5.86,15.35-5.86,21.21,0s5.86,15.35,0,21.21ZM236.6,280.61l-60,60c-2.93,2.93-6.77,4.39-10.6,4.39s-7.68-1.46-10.6-4.39l-30-30c-5.86-5.86-5.86-15.35,0-21.21,5.86-5.86,15.35-5.86,21.21,0l19.39,19.39,49.4-49.39c5.86-5.86,15.35-5.86,21.21,0,5.86,5.86,5.86,15.35,0,21.21ZM236.6,175.61l-60,60c-2.93,2.93-6.77,4.4-10.6,4.4s-7.68-1.46-10.6-4.4l-30-30c-5.86-5.86-5.86-15.35,0-21.21,5.86-5.86,15.35-5.86,21.21,0l19.39,19.4,49.4-49.4c5.86-5.86,15.35-5.86,21.21,0s5.86,15.35,0,21.21ZM376,420h-90c-8.29,0-15-6.71-15-15s6.71-15,15-15h90c8.29,0,15,6.71,15,15s-6.71,15-15,15ZM376,315h-90c-8.29,0-15-6.71-15-15s6.71-15,15-15h90c8.29,0,15,6.71,15,15s-6.71,15-15,15ZM376,210h-90c-8.29,0-15-6.71-15-15s6.71-15,15-15h90c8.29,0,15,6.71,15,15s-6.71,15-15,15Z"/></svg>