<?xml version="1.0" encoding="UTF-8"?><svg id="_圖層_4" xmlns="http://www.w3.org/2000/svg" viewBox="0 0 512 512"><defs><style>.cls-1{fill:#434e0d;fill-rule:evenodd;}</style></defs><path class="cls-1" d="M447.44,247.71V49.04c0-26.37-21.55-47.92-47.87-47.92H112.13c-26.32,0-47.89,21.55-47.89,47.92v198.67l175.74,100.42c5.01,2.89,10.48,4.25,15.86,4.25s10.83-1.35,15.84-4.25l175.74-100.42h0ZM511.32,248.02v232.09c0,17.56-14.38,31.96-31.94,31.96H32.31c-17.55,0-31.92-14.4-31.92-31.96v-232.09c.7.42,1.41.82,2.12,1.2l221.65,126.65c9.66,5.54,20.58,8.43,31.7,8.41,11.12.02,22.04-2.87,31.68-8.41l221.66-126.65c.71-.38,1.43-.78,2.12-1.2h0ZM201.7,177.42c8.13-2.91,16.96-4.99,25.87-6.41,9.91-1.57,19.55-2.24,28.29-2.24s18.38.68,28.28,2.24c8.9,1.41,17.72,3.5,25.87,6.41,5.02,1.79,9.94,3.97,14.73,6.56,4.58,2.46,8.91,5.29,12.95,8.53,3.9,3.15,5.97,7.75,5.97,12.41v19.74c0,8.79-7.12,15.96-15.95,15.96h-143.71c-8.83,0-15.96-7.17-15.96-15.96v-19.74c0-5.5,2.78-10.36,7.03-13.25,3.74-2.89,7.73-5.47,11.89-7.69,4.8-2.59,9.73-4.77,14.74-6.56h0ZM255.85,49.04c22.04,0,39.91,14.4,39.91,46.11s-18.42,57.65-39.91,57.65-39.91-25.97-39.91-57.65,17.88-46.11,39.91-46.11Z"/></svg>