<?xml version="1.0" encoding="UTF-8"?><svg id="Layer_1" xmlns="http://www.w3.org/2000/svg" viewBox="0 0 14.33 14.33"><defs><style>.cls-1{fill:#fff;}</style></defs><path class="cls-1" d="M.45,13.92L.01,10.84s-.01-.06-.01-.09c0-.08.02-.15.06-.21.05-.09.13-.16.22-.2l3.11-1.55c.14-.07.31-.06.43.02l1.58.98c.79-.44,1.67-1.14,2.46-1.93.79-.79,1.49-1.67,1.93-2.46l-.98-1.57c-.08-.13-.09-.29-.02-.43l1.55-3.11c.04-.1.11-.17.2-.22.06-.04.14-.05.21-.05.03,0,.06,0,.09,0l3.08.44c.23.02.41.21.41.45,0,3.08-1.55,6.26-3.87,8.75-.3.33-.62.64-.95.94-2.46,2.25-5.58,3.75-8.61,3.75-.23,0-.43-.18-.45-.41Z"/></svg>