<?xml version="1.0" encoding="UTF-8"?><svg id="Layer_1" xmlns="http://www.w3.org/2000/svg" viewBox="0 0 14.33 14.33"><defs><style>.cls-1{fill:#fff;}</style></defs><path class="cls-1" d="M11.83.26l2.24,2.24c.17.17.26.4.26.63s-.09.46-.26.63l-1.25,1.25-3.51-3.51,1.25-1.25c.17-.17.4-.26.63-.26s.46.09.63.26h0ZM2.55,8.19l3.58,3.58,6.09-6.08-.58-.58-.63-.63-1.16-1.16-.63-.63-.58-.58-6.09,6.09h0ZM.03,13.73l.5-1.38,1.45,1.45-1.37.5h0c-.09.03-.2.04-.3,0-.23-.09-.35-.34-.27-.57H.03ZM.86,11.43l.94-2.59s.02-.06.04-.09l3.74,3.74s-.04.02-.06.03l-2.62.95-2.04-2.04Z"/></svg>